HIERARCHY
ROOT pelvis
{
  OFFSET 0 100 0
  CHANNELS 6 Xposition Yposition Zposition Zrotation Xrotation Yrotation
  JOINT pelvis_right_femur
  {
    OFFSET -10.78128 -3.44521 -0.5502486
    CHANNELS 3 Zrotation Xrotation Yrotation
    JOINT right_femur_tibia
    {
      OFFSET -0.8047443 -44.0398 -0.1307829
      CHANNELS 3 Zrotation Xrotation Yrotation
      JOINT right_tibia_foot
      {
        OFFSET 3.006224 -47.83518 -5
        CHANNELS 3 Zrotation Xrotation Yrotation
        End Site
        {
          OFFSET 0 -5 15
        }
      }
    }
  }
  JOINT pelvis_left_femur
  {
    OFFSET 10.78128 -3.44521 -0.5502486
    CHANNELS 3 Zrotation Xrotation Yrotation
    JOINT left_femur_tibia
    {
      OFFSET 0.8047443 -44.0398 -0.1307829
      CHANNELS 3 Zrotation Xrotation Yrotation
      JOINT left_tibia_foot
      {
        OFFSET -4.370144 -48.10324 -4.275266
        CHANNELS 3 Zrotation Xrotation Yrotation
        End Site
        {
          OFFSET 0 -5 15
        }
      }
    }
  }
  JOINT pelvis_spine1
  {
    OFFSET 0 6.468898 -3.129235
    CHANNELS 3 Zrotation Xrotation Yrotation
    JOINT spine1
    {
      OFFSET 0 23.15396 4.99043
      CHANNELS 3 Zrotation Xrotation Yrotation
      JOINT spine2
      {
        OFFSET 0 20.79997 -5.064912
        CHANNELS 3 Zrotation Xrotation Yrotation
        JOINT neck
        {
          OFFSET 0 14.38658 9.616178
          CHANNELS 3 Zrotation Xrotation Yrotation
          End Site
          {
            OFFSET 0 20 0
          }
        }
      }
      JOINT right_manubrium
      {
        OFFSET -5.722621 16.35077 3.967754
        CHANNELS 3 Zrotation Xrotation Yrotation
        JOINT right_clavicle
        {
          OFFSET -13.16364 1.694482 -4.693211
          CHANNELS 3 Zrotation Xrotation Yrotation
          JOINT right_humerus
          {
            OFFSET -28.5034 -0.3100689 -2.792744
            CHANNELS 3 Zrotation Xrotation Yrotation
            JOINT right_radius
            {
              OFFSET -25.15693 0.02248979 -1.271978
              CHANNELS 3 Zrotation Xrotation Yrotation
              End Site
              {
                OFFSET -15 0 0
              }
            }
          }
        }
      }
      JOINT left_manubrium
      {
        OFFSET 5.722621 16.35077 3.967754
        CHANNELS 3 Zrotation Xrotation Yrotation
        JOINT left_clavicle
        {
          OFFSET 13.16364 1.694482 -4.693211
          CHANNELS 3 Zrotation Xrotation Yrotation
          JOINT left_humerus
          {
            OFFSET 29.39168 -1.063119 -2.237045
            CHANNELS 3 Zrotation Xrotation Yrotation
            JOINT left_radius
            {
              OFFSET 24.59957 -0.9528479 0.9047498
              CHANNELS 3 Zrotation Xrotation Yrotation
              End Site
              {
                OFFSET 15 -0 -0
              }
            }
          }
        }
      }
    }
  }
}
MOTION
Frames: 15
Frame Time: 0.0416666666667
1249.57 102.9005 2761.729 6.141485 -4.118372 41.82372 -0.004998573 -2.181292 4.176157 -0 57.63259 -0 2.781909 1.982125 -7.075805 -5.8408 -3.963057 -7.997085 -0 19.59252 -0 -1.70858 -12.61607 16.69374 -1.249896 0.7312232 3.212859 -1.065093 9.682643 -2.571303 2.492952 25.58442 5.699588 2.986506 -17.74312 8.013454 -0.6938447 -18.30302 10.13732 88.04281 22.87161 -8.929753 -0 0 11.64413 -22.8255 8.466457 12.11367 5.571171 -17.21199 -4.572012 -92.43708 21.32602 19.35206 0 0 -5.184845 7.370383 15.80023 4.379913
1253.736 103.5968 2765.343 6.149838 -4.500838 43.0969 0.3479364 -9.328943 3.413308 -0 52.16754 -0 1.724769 0.5401767 -7.88097 -5.557183 1.464983 -7.918241 -0 16.72229 -0 -1.740223 -14.23167 16.03388 -1.325834 0.9850505 2.669154 -0.66502 9.346167 -3.228667 2.464519 25.76192 5.677942 2.816388 -17.56258 8.028673 -0.8810553 -17.16617 10.1087 89.36565 22.66472 -11.15954 -0 0 9.341501 -21.66228 8.307138 10.88714 5.623377 -18.02792 -4.683894 -90.70412 22.08484 16.53803 0 0 -8.640984 7.469844 15.57981 4.371612
1257.8 103.6051 2769.014 6.065106 -4.568434 44.15717 0.4167582 -15.37579 2.586772 -0 43.59865 -0 0.6309011 -0.7756197 -8.425214 -5.240058 6.242876 -7.701322 -0 14.51893 -0 -2.124335 -16.07776 15.17557 -1.29497 1.083064 2.278915 -0.3103514 9.174356 -3.901449 2.43997 25.72799 5.637 2.52109 -17.77036 8.152337 -1.371787 -16.60942 9.968687 90.85565 21.96102 -13.27441 -0 0 7.715001 -20.68861 8.12334 9.863618 5.649572 -18.90964 -4.765611 -89.12993 22.77382 14.24281 0 0 -12.24786 7.430271 14.90517 4.730668
1261.88 103.0062 2772.853 5.844801 -4.300843 44.98954 0.2972846 -20.08741 1.802879 -0 34.16479 -0 -0.213187 -1.85586 -8.830721 -5.059774 10.26272 -7.484727 -0 13.34586 -0 -2.696511 -17.96935 14.29697 -1.148483 1.029945 2.118692 -0.05760157 9.218937 -4.494411 2.418053 25.51586 5.595474 2.144852 -18.37576 8.366964 -2.192445 -16.73785 9.730641 92.43457 20.75357 -15.01678 -0 0 6.940835 -20.07884 7.814707 9.157471 5.609096 -19.77141 -4.832899 -88.00292 23.34585 12.89412 0 0 -15.43509 7.146942 13.79324 5.58807
1266.046 101.9698 2776.912 5.452426 -3.752597 45.62976 0.1948205 -23.60292 1.245263 -0 25.38729 -0 -0.7148519 -2.643139 -9.167811 -5.034732 13.53431 -7.335094 -0 13.27524 -0 -3.211417 -19.61009 13.57539 -0.9574183 0.8837151 2.139127 0.09293799 9.403297 -4.988205 2.405103 25.2173 5.548438 1.766052 -19.09945 8.590898 -3.118929 -17.24754 9.463818 93.9098 19.38993 -16.37463 -0 0 6.783696 -19.82089 7.448929 8.736143 5.503766 -20.5579 -4.901314 -87.22927 23.76203 12.22327 0 0 -18.04092 6.657374 12.49461 6.742705
1270.347 100.7109 2781.228 4.891451 -3.052283 46.13294 0.3619493 -26.08457 1.122443 -0 18.23286 -0 -0.9085426 -3.04911 -9.458278 -5.082792 16.12569 -7.276146 -0 14.41919 -0 -3.53687 -20.64468 13.11041 -0.8177005 0.7179834 2.270082 0.1660996 9.602927 -5.380599 2.416657 24.90438 5.477637 1.439226 -19.64658 8.760639 -3.861214 -17.78029 9.222234 95.01261 18.28797 -17.35798 -0 0 7.021563 -19.79405 7.159951 8.52968 5.348933 -21.15366 -4.947856 -86.63677 24.06324 11.82685 0 0 -19.98649 5.983049 11.19512 8.003306
1274.831 99.48823 2785.835 4.182215 -2.386401 46.54339 1.058711 -27.50292 1.630683 -0 13.44766 -0 -0.8738962 -3.002573 -9.669696 -5.056083 18.04201 -7.320079 -0 17.09887 -0 -3.80319 -20.62944 12.86635 -0.8151351 0.6060457 2.459755 0.1882818 9.704973 -5.657104 2.464018 24.61924 5.379021 1.199539 -19.83515 8.852468 -4.17095 -18.07353 9.027791 95.46675 17.77026 -17.92337 -0 0 7.556004 -19.85336 7.06232 8.482632 5.163163 -21.38894 -4.923851 -86.14852 24.37951 11.46474 0 0 -21.09259 5.116595 9.943792 9.292822
1279.537 98.6034 2790.757 3.341218 -1.968439 46.85769 2.449544 -27.5215 2.878215 -0 11.61255 -0 -0.6808888 -2.597633 -9.705134 -4.783244 19.05008 -7.457101 -0 21.87542 -0 -4.444732 -19.04932 12.65591 -0.9894709 0.6071398 2.655943 0.1917792 9.626276 -5.81661 2.552713 24.39005 5.254475 1.063504 -19.59309 8.864356 -3.911803 -17.95104 8.879221 95.10489 17.96887 -18.0607 -0 0 8.293262 -19.84269 7.230238 8.509225 4.979105 -21.15362 -4.789405 -85.73335 24.85091 10.97937 0 0 -21.26195 4.108586 8.765014 10.53893
1284.452 98.3425 2795.942 2.450097 -1.956171 46.98678 4.326612 -25.60463 4.673585 -0 12.6605 -0 -0.4076065 -2.275264 -9.457878 -4.210881 18.57162 -7.567419 -0 29.29741 -0 -5.85217 -15.63346 12.32521 -1.298527 0.740013 2.809693 0.2170686 9.346604 -5.878258 2.692461 24.2531 5.081664 1.005161 -18.95598 8.80442 -3.156184 -17.35648 8.769575 94.0084 18.7429 -17.83806 -0 0 9.063734 -19.60946 7.662924 8.462176 4.827634 -20.49715 -4.550979 -85.38393 25.51285 10.28523 0 0 -20.63189 3.089944 7.791657 11.60343
1289.453 98.81636 2801.214 1.921399 -2.385884 46.77859 5.915213 -21.54595 6.381491 -0 15.28569 -0 -0.2689678 -2.768305 -9.034703 -3.591812 16.09099 -7.408425 -0 39.13188 -0 -7.603203 -11.10629 12.16799 -1.62761 0.9623308 2.894433 0.2950555 8.944941 -5.850699 2.885261 24.2632 4.828755 0.9623331 -18.08254 8.692702 -2.204853 -16.43417 8.716326 92.56461 19.73736 -17.36365 -0 0 9.62249 -19.0749 8.227308 8.217686 4.714256 -19.64342 -4.276327 -85.16342 26.22076 9.504499 0 0 -19.54689 2.243493 7.298944 12.29739
1294.307 99.86601 2806.335 2.41709 -3.235938 46.16457 6.511901 -15.90248 7.344305 -0 17.78303 -0 -0.6924518 -4.52726 -8.691634 -3.271923 11.74362 -7.067549 -0 49.63939 -0 -8.535158 -7.297889 12.84473 -1.872628 1.219259 2.917497 0.4178568 8.540946 -5.694382 3.109805 24.46958 4.501257 0.8984803 -17.17114 8.549955 -1.378761 -15.46803 8.758881 91.19836 20.65771 -16.64115 -0 0 9.803409 -18.30695 8.697948 7.811216 4.620667 -18.81009 -4.034489 -85.23265 26.76922 8.997455 0 0 -18.21773 1.692545 7.512043 12.52554
1298.789 101.225 2811.07 3.603804 -4.147241 45.29785 6.307306 -9.849476 7.243125 -0 18.99359 -0 -1.907679 -7.026896 -7.94196 -3.186844 5.552983 -7.096189 -0 57.95332 -0 -8.306065 -5.433848 14.13573 -2.017538 1.512741 2.918566 0.5533851 8.174176 -5.339199 3.362881 24.89573 4.091606 0.8363513 -16.19473 8.339191 -0.6980429 -14.57582 8.944019 89.90586 21.54828 -15.47918 -0 0 9.66865 -17.43806 8.981253 7.382233 4.52399 -17.99246 -3.827906 -85.74824 27.03972 9.041973 0 0 -16.39924 1.37971 8.515974 12.33777
1302.887 102.5764 2815.311 4.219835 -4.26224 44.43055 5.739987 -4.646684 6.132101 -0 17.6019 -0 -3.150428 -9.092989 -6.073369 -2.967272 -2.477605 -7.304141 -0 61.3341 -0 -7.959965 -5.198917 14.69141 -2.06741 1.833161 3.005135 0.6200503 7.88573 -4.719542 3.635681 25.48701 3.600042 0.8636243 -15.01996 7.962162 -0.02964678 -13.87534 9.31634 88.41801 22.57968 -13.57828 -0 0 9.589036 -16.80294 9.073135 7.217827 4.414868 -17.12257 -3.63879 -86.86962 26.84135 9.929806 0 0 -13.60108 1.158198 10.26968 11.86232
1306.786 103.5359 2819.222 4.25934 -3.674578 43.71025 4.959611 -0.2469041 4.81474 -0 14.32295 -0 -3.478033 -10.50551 -3.901564 -2.353388 -10.66356 -6.860569 -0 59.26541 -0 -7.984442 -5.58037 14.76542 -1.980597 2.089388 3.27404 0.4488664 7.745739 -3.865078 3.81739 26.01679 3.235123 1.128095 -13.9242 7.445502 0.5206252 -13.77583 9.773647 86.81169 23.66174 -10.9711 -0 0 10.11846 -17.00404 8.896739 7.719783 4.370098 -16.30606 -3.466241 -88.56489 25.97563 11.87536 0 0 -9.888993 1.106322 12.30363 11.15269
1310.614 103.8685 2823.035 4.459126 -3.471968 43.11861 4.376309 3.95085 3.890533 -0 11.67157 -0 -3.272609 -11.92564 -2.605073 -1.349912 -16.79041 -5.895206 -0 53.30208 -0 -7.765327 -6.056178 15.76542 -1.796337 2.215526 3.594262 -0.01561599 7.665965 -2.947684 3.832968 26.32625 3.216677 1.69544 -13.16466 6.963449 0.9388712 -14.17284 10.13791 85.32985 24.80128 -8.298223 -0 0 11.18895 -18.11609 8.645924 8.81173 4.515372 -15.65772 -3.329272 -90.27436 24.58192 14.10866 0 0 -6.082249 1.531596 14.21656 9.920924
